<?xml version="1.0" encoding="UTF-8"?>
<svg width="538px" height="105px" viewBox="0 0 538 105" version="1.1" xmlns="http://www.w3.org/2000/svg" xmlns:xlink="http://www.w3.org/1999/xlink">
    <title>Group 4</title>
    <g id="Page-1" stroke="none" stroke-width="1" fill="none" fill-rule="evenodd">
        <g id="Group-4" fill="#212529">
            <g id="ballr-copy" transform="translate(128.275, 0)" fill-rule="nonzero">
                <path d="M30.45,105 C58.65,105 72.75,93.75 72.75,73.05 C72.75,59.1 63.15,53.4 59.25,51.6 C58.2,51.15 58.05,50.55 58.8,49.65 C61.2,46.8 66.45,39.3 66.45,27.9 C66.45,1.05 39.3,0 30.45,0 L4.2,0 C1.5,0 0,1.5 0,4.2 L0,100.8 C0,103.5 1.5,105 4.2,105 L30.45,105 Z M26.4,78.45 L26.4,62.4 C26.4,61.5 27,60.9 27.9,60.9 L34.65,60.9 C39.6,60.9 45,63.45 45,70.05 C45,78.15 39.75,79.95 34.95,79.95 L27.9,79.95 C27,79.95 26.4,79.35 26.4,78.45 Z M26.55,39.45 L26.55,26.1 C26.55,25.2 27.15,24.6 28.05,24.6 L33.45,24.6 C36.3,24.6 42.3,26.25 42.3,32.4 C42.3,39 37.35,40.95 33.45,40.95 L28.05,40.95 C27.15,40.95 26.55,40.35 26.55,39.45 Z" id="Shape"></path>
                <path d="M83.7,105 L102.75,105 C105.15,105 106.65,103.8 107.4,101.55 L109.2,95.25 C109.5,94.5 110.1,94.05 111,94.05 L135.75,94.05 C136.65,94.05 137.25,94.5 137.55,95.25 L139.35,101.55 C140.1,103.8 141.6,105 144,105 L163.05,105 C166.05,105 167.4,103.35 166.65,100.35 L140.25,3.6 C139.65,1.2 137.85,0 135.45,0 L111.3,0 C108.9,0 107.1,1.2 106.5,3.6 L80.1,100.35 C79.35,103.35 80.7,105 83.7,105 Z M115.65,67.8 L122.25,41.1 C122.55,39.6 123.75,39.75 124.05,41.1 L131.1,67.8 C131.4,68.85 130.8,69.45 129.75,69.45 L116.85,69.45 C115.8,69.45 115.35,68.85 115.65,67.8 Z" id="Shape"></path>
                <path d="M177,4.2 L177,100.8 C177,103.5 178.5,105 181.2,105 L240,105 C242.7,105 244.2,103.5 244.2,100.8 L244.2,82.65 C244.2,79.95 242.7,78.45 240,78.45 L206.85,78.45 C205.95,78.45 205.35,77.85 205.35,76.95 L205.35,4.2 C205.35,1.5 203.85,0 201.15,0 L181.2,0 C178.5,0 177,1.5 177,4.2 Z" id="Path"></path>
                <path d="M254.7,4.2 L254.7,100.8 C254.7,103.5 256.2,105 258.9,105 L317.7,105 C320.4,105 321.9,103.5 321.9,100.8 L321.9,82.65 C321.9,79.95 320.4,78.45 317.7,78.45 L284.55,78.45 C283.65,78.45 283.05,77.85 283.05,76.95 L283.05,4.2 C283.05,1.5 281.55,0 278.85,0 L258.9,0 C256.2,0 254.7,1.5 254.7,4.2 Z" id="Path"></path>
                <path d="M332.4,4.2 L332.4,100.8 C332.4,103.5 333.9,105 336.6,105 L357,105 C359.7,105 361.2,103.5 361.2,100.8 L361.2,71.55 C361.2,70.65 361.8,70.2 362.7,70.2 L363.75,70.2 C364.5,70.2 365.1,70.65 365.4,71.55 L377.4,101.7 C378.3,103.95 379.95,105 382.35,105 L406.05,105 C409.2,105 410.55,103.05 409.2,100.05 L393.15,65.25 C392.85,64.5 393,63.75 393.75,63.3 C401.25,58.05 407.25,49.35 407.25,34.5 C407.25,11.85 395.25,0 367.95,0 L336.6,0 C333.9,0 332.4,1.5 332.4,4.2 Z M361.2,42.9 L361.2,25.8 C361.2,24.9 361.8,24.3 362.7,24.3 L369.75,24.3 C377.25,24.3 380.1,29.25 380.1,34.95 C380.1,40.8 376.5,44.4 370.35,44.4 L362.7,44.4 C361.8,44.4 361.2,43.8 361.2,42.9 Z" id="Shape"></path>
            </g>
            <circle id="Oval" cx="52.5" cy="52.5" r="52.5"></circle>
        </g>
    </g>
</svg>